<svg id="Layer_1" data-name="Layer 1" xmlns="http://www.w3.org/2000/svg" viewBox="0 0 449.84 339"><defs><style>.cls-1{fill:#107c0f;}.cls-2,.cls-3{fill:none;stroke:#107c0f;}.cls-2{stroke-miterlimit:10;}</style></defs><title>shapshot-logo-complex-green</title><polygon class="cls-1" points="168.42 97.21 168.42 128.44 189.84 112.83 168.42 97.21"/><g id="g4146"><path id="path4148" class="cls-1" d="M301,303.1a99,99,0,0,1-43.9-15.49c-11.1-7.2-13.61-10.16-13.61-16.07,0-11.87,13.12-32.66,35.58-56.36,12.75-13.46,30.48-29.24,32.48-28.81,3.73,0.83,33.59,29.79,44.77,43.42,17.67,21.56,25.8,39.21,21.67,47.08-3.14,6-22.61,17.67-36.91,22.17a109.08,109.08,0,0,1-40,4.06H301Zm-72.51-43.92c-9.23-14.07-13.89-27.93-16.14-48-0.74-6.62-.48-10.4,1.69-24,2.7-16.93,12.39-36.51,24-48.56,5-5.13,5.4-5.26,11.45-3.23,7.34,2.46,15.19,7.85,27.35,18.78l7.1,6.38L280,165.28c-18,22-37,53.12-44.14,72.4-3.89,10.48-5.46,21-3.79,25.37C233.27,266.08,232.23,265,228.44,259.18Zm161.9,2.41c0.91-4.42-.24-12.55-2.94-20.74C381.55,223.1,362,190.09,344,167.64l-5.65-7.07,6.12-5.58c8-7.29,13.53-11.66,19.51-15.36,4.72-2.93,11.47-5.52,14.37-5.52,1.79,0,8.08,6.49,13.16,13.58a102.68,102.68,0,0,1,16.59,38.14c1.9,9,2,28.11.31,37a116.27,116.27,0,0,1-7.4,23.35,124.5,124.5,0,0,1-10.13,17.26c-1.24,1.57-1.24,1.57-.54-1.82h0ZM302.5,130.76c-8.29-4.18-21.07-8.68-28.13-9.88a51.81,51.81,0,0,0-9.38-.52c-5.83.29-5.57,0,3.78-4.4a96.48,96.48,0,0,1,23-7.63c9.9-2.07,28.5-2.09,38.24,0,10.52,2.2,22.91,6.79,29.89,11.06l2.07,1.27-4.76-.24c-9.46-.47-23.24,3.32-38,10.49a79,79,0,0,1-8.63,3.83c-0.28-.12-3.87-1.88-8-4h0Z" transform="translate(-0.5 -0.5)"/></g><circle class="cls-2" cx="310.21" cy="44.52" r="26.97"/><path id="path3604" class="cls-3" d="M335.64,45.15a24.76,24.76,0,1,1-24.8-24.72h0a24.72,24.72,0,0,1,24.8,24.64v0h0v0Z" transform="translate(-0.5 -0.5)"/><path id="path3608" class="cls-3" d="M310.81,19.8V70.43" transform="translate(-0.5 -0.5)"/><g id="use4120"><path id="path3608-2" class="cls-3" d="M336.13,45.12H285.44" transform="translate(-0.5 -0.5)"/></g><path id="path4122" class="cls-3" d="M308.18,24.87h5.06" transform="translate(-0.5 -0.5)"/><g id="use4124"><path id="path4122-2" class="cls-3" d="M308.38,35h5.06" transform="translate(-0.5 -0.5)"/></g><g id="use4126"><path id="path4122-3" class="cls-3" d="M308.38,55.25h5.06" transform="translate(-0.5 -0.5)"/></g><g id="use4128"><path id="path4122-4" class="cls-3" d="M308.38,65.38h5.06" transform="translate(-0.5 -0.5)"/></g><path id="path4130" class="cls-3" d="M305.75,29.93h10.13" transform="translate(-0.5 -0.5)"/><g id="use4132"><path id="path4130-2" class="cls-3" d="M305.75,40.06h10.13" transform="translate(-0.5 -0.5)"/></g><g id="use4134"><path id="path4130-3" class="cls-3" d="M305.75,50.19h10.13" transform="translate(-0.5 -0.5)"/></g><g id="use4136"><path id="path4130-4" class="cls-3" d="M305.75,60.33h10.13" transform="translate(-0.5 -0.5)"/></g><g id="use4138"><path id="path4122-5" class="cls-3" d="M305.75,42.49v5.06" transform="translate(-0.5 -0.5)"/></g><g id="use4140"><path id="path4122-6" class="cls-3" d="M295.64,42.49v5.06" transform="translate(-0.5 -0.5)"/></g><g id="use4142"><path id="path4122-7" class="cls-3" d="M315.87,42.49v5.06" transform="translate(-0.5 -0.5)"/></g><g id="use4144"><path id="path4122-8" class="cls-3" d="M326,42.49v5.06" transform="translate(-0.5 -0.5)"/></g><g id="use4146"><path id="path4130-5" class="cls-3" d="M290.76,40.26V50.43" transform="translate(-0.5 -0.5)"/></g><g id="use4148"><path id="path4130-6" class="cls-3" d="M300.88,40.26V50.43" transform="translate(-0.5 -0.5)"/></g><g id="use4150"><path id="path4130-7" class="cls-3" d="M320.74,40.26V50.43" transform="translate(-0.5 -0.5)"/></g><g id="layer1"><g id="use4152"><path id="path4130-8" class="cls-3" d="M331.27,40.26V50.43" transform="translate(-0.5 -0.5)"/></g></g><path class="cls-1" d="M390.56,69.15L371.18,31.5s-14-31-31.26-31H282.5c-17.28,0-31.3,31.37-31.3,31.37L232,69.5H197.34v-20h-78v20H42.61c-17.27,0-25.56,5.93-31.27,31S-1.2,152.5.88,205.23,4,281.45,11.34,308s14,31.45,31.27,31.45h65.73V274.31c0-5.19,4.12-8.84,9.3-8.84h0.07c5.18,0,9.62,3.65,9.62,8.84v65.16H419.2c17.28,0,31.14-14.49,31.14-31.78V131.39C450.34,104.84,429.94,72.52,390.56,69.15ZM310.71,13.46A31.57,31.57,0,1,1,279.14,45,31.57,31.57,0,0,1,310.71,13.46ZM176.14,131.39h0a18.78,18.78,0,1,1,18.78-18.78,18.78,18.78,0,0,1-18.78,18.78Zm134.6,186.76h0A113.71,113.71,0,1,1,424.42,204.41,113.71,113.71,0,0,1,310.71,318.15Z" transform="translate(-0.5 -0.5)"/></svg>