<svg id="Layer_1_copy_2" data-name="Layer 1 copy 2" xmlns="http://www.w3.org/2000/svg" viewBox="0 0 449.84 339"><title>snapshot-logo</title><path d="M421.22,155.65L401.84,118s-14-31-31.26-31H313.2c-17.28,0-31.3,31.37-31.3,31.37L262.65,156H228V136H150v20H73.27C56,156,47.71,161.93,42,187S29.46,239,31.54,291.73,34.67,367.95,42,394.55,56,426,73.27,426H139V360.84c0-5.19,4.12-8.84,9.3-8.84h0.07c5.18,0,9.62,3.65,9.62,8.84V426H449.86c17.28,0,31.14-14.49,31.14-31.78V217.92C481,191.37,460.6,159.05,421.22,155.65ZM206.8,217.92a18.78,18.78,0,1,1,18.78-18.78A18.78,18.78,0,0,1,206.8,217.92ZM341.37,404.65A113.71,113.71,0,1,1,455.08,290.95,113.71,113.71,0,0,1,341.37,404.65Z" transform="translate(-31.16 -87)"/><g id="g4146"><path id="path4148" d="M331.61,388.92a99,99,0,0,1-43.9-15.49c-11.1-7.2-13.61-10.16-13.61-16.07,0-11.87,13.12-32.66,35.58-56.36,12.75-13.46,30.52-29.24,32.44-28.81,3.73,0.83,33.59,29.79,44.77,43.42,17.67,21.56,25.8,39.21,21.67,47.08-3.14,6-22.61,17.67-36.91,22.17a109.08,109.08,0,0,1-40,4.06h0ZM259.1,345c-9.23-14.07-13.89-27.93-16.14-48-0.74-6.62-.48-10.4,1.69-24,2.7-16.93,12.39-36.51,24-48.56,5-5.13,5.4-5.26,11.45-3.23,7.34,2.46,15.19,7.85,27.35,18.78l7.1,6.38-3.88,4.73c-18,22-37,53.12-44.14,72.4-3.89,10.48-5.46,21-3.79,25.37C263.93,351.9,262.89,350.79,259.1,345ZM421,347.41c0.91-4.42-.24-12.55-2.94-20.74-5.85-17.75-25.41-50.76-43.36-73.21l-5.65-7.07,6.12-5.58c8-7.29,13.53-11.66,19.51-15.36,4.72-2.93,11.47-5.52,14.37-5.52,1.79,0,8.08,6.49,13.16,13.58a102.68,102.68,0,0,1,16.59,38.14c1.9,9,2.05,28.11.31,37A116.27,116.27,0,0,1,431.71,332a124.5,124.5,0,0,1-10.13,17.26c-1.24,1.57-1.24,1.57-.54-1.82h0Zm-87.8-130.83c-8.29-4.18-21.07-8.68-28.13-9.88a51.81,51.81,0,0,0-9.38-.52c-5.83.29-5.57,0,3.78-4.4a96.48,96.48,0,0,1,23-7.63c9.9-2.07,28.5-2.09,38.24,0,10.52,2.2,22.91,6.79,29.89,11.06l2.07,1.27-4.76-.24c-9.46-.47-23.24,3.32-38,10.49a79,79,0,0,1-8.63,3.83C341,220.44,337.41,218.68,333.24,216.58Z" transform="translate(-31.16 -87)"/></g></svg>