<svg id="Layer_1" data-name="Layer 1" xmlns="http://www.w3.org/2000/svg" viewBox="0 0 450.84 339.97"><defs><style>.cls-1{fill:#fff}.cls-1,.cls-2,.cls-3{stroke:#fff}.cls-1,.cls-2{stroke-miterlimit:10}.cls-2,.cls-3{fill:none}</style></defs><title>shapshot-logo-complex-white</title><path class="cls-1" d="M168.92 97.69v31.24l21.42-15.62-21.42-15.62z"/><g id="g4146"><path id="path4148" class="cls-1" d="M300.5 302.6a99 99 0 0 1-43.9-15.49C245.5 279.91 243 277 243 271c0-11.87 13.12-32.66 35.58-56.36 12.75-13.46 30.48-29.24 32.48-28.81 3.73.83 33.59 29.79 44.77 43.42 17.67 21.56 25.8 39.21 21.67 47.08-3.14 6-22.61 17.67-36.91 22.17a109.08 109.08 0 0 1-40 4.06h-.09zM228 258.68c-9.23-14.07-13.89-27.93-16.14-48-.74-6.62-.48-10.4 1.69-24 2.7-16.93 12.39-36.51 24-48.56 5-5.13 5.4-5.26 11.45-3.23 7.34 2.46 15.19 7.85 27.35 18.78l7.1 6.38-3.94 4.73c-18 22-37 53.12-44.14 72.4-3.89 10.48-5.46 21-3.79 25.37 1.2 3 .16 2-3.63-3.87zm161.9 2.41c.91-4.42-.24-12.55-2.94-20.74-5.9-17.75-25.45-50.76-43.45-73.21l-5.65-7.07 6.12-5.58c8-7.29 13.53-11.66 19.51-15.36 4.72-2.93 11.47-5.52 14.37-5.52 1.79 0 8.08 6.49 13.16 13.58a102.68 102.68 0 0 1 16.59 38.14c1.9 9 2 28.11.31 37a116.27 116.27 0 0 1-7.4 23.35 124.5 124.5 0 0 1-10.13 17.26c-1.24 1.57-1.24 1.57-.54-1.82zM302 130.26c-8.29-4.18-21.07-8.68-28.13-9.88a51.81 51.81 0 0 0-9.38-.52c-5.83.29-5.57 0 3.78-4.4a96.48 96.48 0 0 1 23-7.63c9.9-2.07 28.5-2.09 38.24 0 10.52 2.2 22.91 6.79 29.89 11.06l2.07 1.27-4.76-.24c-9.46-.47-23.24 3.32-38 10.49a79 79 0 0 1-8.63 3.83c-.28-.12-3.87-1.88-8-4z" transform="translate(.5 .49)"/></g><circle class="cls-2" cx="310.71" cy="45.01" r="26.97"/><path id="path3604" class="cls-3" d="M335.14 44.65a24.76 24.76 0 1 1-24.8-24.72 24.72 24.72 0 0 1 24.8 24.64v.08z" transform="translate(.5 .49)"/><path id="path3608" class="cls-3" d="M310.31 19.3v50.63" transform="translate(.5 .49)"/><g id="use4120"><path id="path3608-2" class="cls-3" d="M335.63 44.62h-50.69" transform="translate(.5 .49)"/></g><path id="path4122" class="cls-3" d="M307.68 24.37h5.06" transform="translate(.5 .49)"/><g id="use4124"><path id="path4122-2" class="cls-3" d="M307.88 34.5h5.06" transform="translate(.5 .49)"/></g><g id="use4126"><path id="path4122-3" class="cls-3" d="M307.88 54.75h5.06" transform="translate(.5 .49)"/></g><g id="use4128"><path id="path4122-4" class="cls-3" d="M307.88 64.88h5.06" transform="translate(.5 .49)"/></g><path id="path4130" class="cls-3" d="M305.25 29.43h10.13" transform="translate(.5 .49)"/><g id="use4132"><path id="path4130-2" class="cls-3" d="M305.25 39.56h10.13" transform="translate(.5 .49)"/></g><g id="use4134"><path id="path4130-3" class="cls-3" d="M305.25 49.69h10.13" transform="translate(.5 .49)"/></g><g id="use4136"><path id="path4130-4" class="cls-3" d="M305.25 59.83h10.13" transform="translate(.5 .49)"/></g><g id="use4138"><path id="path4122-5" class="cls-3" d="M305.25 42v5.06" transform="translate(.5 .49)"/></g><g id="use4140"><path id="path4122-6" class="cls-3" d="M295.14 42v5.06" transform="translate(.5 .49)"/></g><g id="use4142"><path id="path4122-7" class="cls-3" d="M315.37 42v5.06" transform="translate(.5 .49)"/></g><g id="use4144"><path id="path4122-8" class="cls-3" d="M325.5 42v5.06" transform="translate(.5 .49)"/></g><g id="use4146"><path id="path4130-5" class="cls-3" d="M290.26 39.76v10.17" transform="translate(.5 .49)"/></g><g id="use4148"><path id="path4130-6" class="cls-3" d="M300.38 39.76v10.17" transform="translate(.5 .49)"/></g><g id="use4150"><path id="path4130-7" class="cls-3" d="M320.24 39.76v10.17" transform="translate(.5 .49)"/></g><g id="layer1"><g id="use4152"><path id="path4130-8" class="cls-3" d="M330.77 39.76v10.17" transform="translate(.5 .49)"/></g></g><path class="cls-1" d="M390.06 68.67L370.68 31s-14-31-31.26-31H282c-17.28 0-31.3 31.37-31.3 31.37L231.5 69h-34.66V49h-78v20H42.11c-17.27 0-25.56 5.93-31.27 31S-1.7 152 .38 204.74 3.5 281 10.84 307.51 24.84 339 42.11 339h65.73v-65.18c0-5.19 4.12-8.84 9.3-8.84h.07c5.18 0 9.62 3.65 9.62 8.84V339H418.7c17.28 0 31.14-14.49 31.14-31.78V130.9c0-26.55-20.4-58.9-59.78-62.23zM310.21 13a31.57 31.57 0 1 1-31.57 31.57A31.57 31.57 0 0 1 310.21 13zM175.64 130.9a18.78 18.78 0 1 1 18.78-18.78 18.78 18.78 0 0 1-18.78 18.78zm134.6 186.76a113.71 113.71 0 1 1 113.68-113.73 113.71 113.71 0 0 1-113.68 113.73z" transform="translate(.5 .49)"/></svg>