<svg id="Layer_1" data-name="Layer 1" xmlns="http://www.w3.org/2000/svg" viewBox="0 0 450.84 340"><defs><style>.cls-1,.cls-2,.cls-4,.cls-5{fill:#107c0f}.cls-1{stroke:#fff}.cls-3{fill:#fff;stroke-miterlimit:10}.cls-3,.cls-4,.cls-5{stroke:#107c0f}.cls-4{fill-opacity:0}</style></defs><title>shapshot-logo-complex-green</title><path class="cls-1" d="M464.06 199l-19.38-37.65s-14-31-31.26-31H356c-17.28 0-31.3 31.37-31.3 31.37l-19.25 37.63h-34.61v-20h-78v20h-76.73c-17.27 0-25.56 5.93-31.27 31s-12.54 52-10.46 104.73 3.13 76.22 10.46 102.82 14 31.45 31.27 31.45h65.73v-65.19c0-5.19 4.12-8.84 9.3-8.84h.07c5.18 0 9.62 3.65 9.62 8.84v65.16H492.7c17.28 0 31.14-14.49 31.14-31.78v-176.3c0-26.55-20.4-58.87-59.78-62.24zm-214.42 62.24a18.78 18.78 0 1 1 18.78-18.78 18.78 18.78 0 0 1-18.78 18.78zM384.21 448a113.71 113.71 0 1 1 113.71-113.74A113.71 113.71 0 0 1 384.21 448z" transform="translate(-73.5 -129.82)"/><path class="cls-2" d="M168.92 97.71v31.23l21.42-15.61-21.42-15.62z"/><g id="g4146"><path id="path4148" class="cls-2" d="M374.45 432.92a99 99 0 0 1-43.9-15.49c-11.1-7.2-13.61-10.16-13.61-16.07 0-11.87 13.12-32.66 35.58-56.36 12.75-13.46 30.48-29.24 32.48-28.81 3.73.83 33.59 29.79 44.77 43.42 17.67 21.56 25.8 39.21 21.67 47.08-3.14 6-22.61 17.67-36.91 22.17a109.08 109.08 0 0 1-40 4.06zM301.94 389c-9.23-14.07-13.89-27.93-16.14-48-.74-6.62-.48-10.4 1.69-24 2.7-16.93 12.39-36.51 24-48.56 5-5.13 5.4-5.26 11.45-3.23 7.34 2.46 15.19 7.85 27.35 18.78l7.1 6.38-3.88 4.73c-18 22-37 53.12-44.14 72.4-3.89 10.48-5.46 21-3.79 25.37 1.19 3.03.15 1.92-3.64-3.87zm161.9 2.41c.91-4.42-.24-12.55-2.94-20.74-5.85-17.75-25.41-50.76-43.36-73.21l-5.65-7.07 6.12-5.58c8-7.29 13.53-11.66 19.51-15.36 4.72-2.93 11.47-5.52 14.37-5.52 1.79 0 8.08 6.49 13.16 13.58a102.68 102.68 0 0 1 16.59 38.14c1.9 9 2 28.11.31 37a116.27 116.27 0 0 1-7.4 23.35 124.5 124.5 0 0 1-10.13 17.26c-1.24 1.57-1.24 1.57-.54-1.82zM376 260.58c-8.29-4.18-21.07-8.68-28.13-9.88a51.81 51.81 0 0 0-9.38-.52c-5.83.29-5.57 0 3.78-4.4a96.48 96.48 0 0 1 23-7.63c9.9-2.07 28.5-2.09 38.24 0 10.52 2.2 22.91 6.79 29.89 11.06l2.07 1.27-4.76-.24c-9.46-.47-23.24 3.32-38 10.49a79 79 0 0 1-8.63 3.83c-.28-.12-3.87-1.88-8-4z" transform="translate(-73.5 -129.82)"/></g><circle class="cls-3" cx="311.57" cy="42.87" r="26.97"/><path id="path3604" class="cls-4" d="M410 172.82a24.76 24.76 0 1 1-24.8-24.72 24.72 24.72 0 0 1 24.8 24.68z" transform="translate(-73.5 -129.82)"/><path id="path3608" class="cls-5" d="M385.17 147.47v50.63" transform="translate(-73.5 -129.82)"/><g id="use4120"><path id="path3608-2" class="cls-5" d="M410.49 172.79H359.8" transform="translate(-73.5 -129.82)"/></g><path id="path4122" class="cls-5" d="M382.54 152.54h5.06" transform="translate(-73.5 -129.82)"/><g id="use4124"><path id="path4122-2" class="cls-5" d="M382.74 162.66h5.06" transform="translate(-73.5 -129.82)"/></g><g id="use4126"><path id="path4122-3" class="cls-5" d="M382.74 182.92h5.06" transform="translate(-73.5 -129.82)"/></g><g id="use4128"><path id="path4122-4" class="cls-5" d="M382.74 193.05h5.06" transform="translate(-73.5 -129.82)"/></g><path id="path4130" class="cls-5" d="M380.11 157.6h10.13" transform="translate(-73.5 -129.82)"/><g id="use4132"><path id="path4130-2" class="cls-5" d="M380.11 167.73h10.13" transform="translate(-73.5 -129.82)"/></g><g id="use4134"><path id="path4130-3" class="cls-5" d="M380.11 177.86h10.13" transform="translate(-73.5 -129.82)"/></g><g id="use4136"><path id="path4130-4" class="cls-5" d="M380.11 188h10.13" transform="translate(-73.5 -129.82)"/></g><g id="use4138"><path id="path4122-5" class="cls-5" d="M380.11 170.16v5.06" transform="translate(-73.5 -129.82)"/></g><g id="use4140"><path id="path4122-6" class="cls-5" d="M370 170.16v5.06" transform="translate(-73.5 -129.82)"/></g><g id="use4142"><path id="path4122-7" class="cls-5" d="M390.23 170.16v5.06" transform="translate(-73.5 -129.82)"/></g><g id="use4144"><path id="path4122-8" class="cls-5" d="M400.36 170.16v5.06" transform="translate(-73.5 -129.82)"/></g><g id="use4146"><path id="path4130-5" class="cls-5" d="M365.12 167.93v10.17" transform="translate(-73.5 -129.82)"/></g><g id="use4148"><path id="path4130-6" class="cls-5" d="M375.24 167.93v10.17" transform="translate(-73.5 -129.82)"/></g><g id="use4150"><path id="path4130-7" class="cls-5" d="M395.1 167.93v10.17" transform="translate(-73.5 -129.82)"/></g><g id="layer1"><g id="use4152"><path id="path4130-8" class="cls-5" d="M405.63 167.93v10.17" transform="translate(-73.5 -129.82)"/></g></g></svg>