<svg data-name="Layer 1 copy 2" xmlns="http://www.w3.org/2000/svg" viewBox="0 0 449.84 339"><title>snapshot-logo</title><path d="M390.06 68.65L370.68 31s-14-31-31.26-31h-57.38c-17.28 0-31.3 31.37-31.3 31.37L231.49 69h-34.65V49h-78v20H42.11c-17.27 0-25.56 5.93-31.27 31S-1.7 152 .38 204.73s3.13 76.22 10.46 102.82S24.84 339 42.11 339h65.73v-65.16c0-5.19 4.12-8.84 9.3-8.84h.07c5.18 0 9.62 3.65 9.62 8.84V339H418.7c17.28 0 31.14-14.49 31.14-31.78v-176.3c0-26.55-20.4-58.87-59.78-62.27zm-214.42 62.27a18.78 18.78 0 1 1 18.78-18.78 18.78 18.78 0 0 1-18.78 18.78zm134.57 186.73a113.71 113.71 0 1 1 113.71-113.7 113.71 113.71 0 0 1-113.71 113.7z"/><path d="M300.45 301.92a99 99 0 0 1-43.9-15.49c-11.1-7.2-13.61-10.16-13.61-16.07 0-11.87 13.12-32.66 35.58-56.36 12.75-13.46 30.52-29.24 32.44-28.81 3.73.83 33.59 29.79 44.77 43.42 17.67 21.56 25.8 39.21 21.67 47.08-3.14 6-22.61 17.67-36.91 22.17a109.08 109.08 0 0 1-40 4.06zM227.94 258c-9.23-14.07-13.89-27.93-16.14-48-.74-6.62-.48-10.4 1.69-24 2.7-16.93 12.39-36.51 24-48.56 5-5.13 5.4-5.26 11.45-3.23 7.34 2.46 15.19 7.85 27.35 18.78l7.1 6.38-3.88 4.73c-18 22-37 53.12-44.14 72.4-3.89 10.48-5.46 21-3.79 25.37 1.19 3.03.15 1.92-3.64-3.87zm161.9 2.41c.91-4.42-.24-12.55-2.94-20.74-5.85-17.75-25.41-50.76-43.36-73.21l-5.65-7.07 6.12-5.58c8-7.29 13.53-11.66 19.51-15.36 4.72-2.93 11.47-5.52 14.37-5.52 1.79 0 8.08 6.49 13.16 13.58a102.68 102.68 0 0 1 16.59 38.14c1.9 9 2.05 28.11.31 37a116.27 116.27 0 0 1-7.4 23.35 124.5 124.5 0 0 1-10.13 17.26c-1.24 1.57-1.24 1.57-.54-1.82zm-87.8-130.83c-8.29-4.18-21.07-8.68-28.13-9.88a51.81 51.81 0 0 0-9.38-.52c-5.83.29-5.57 0 3.78-4.4a96.48 96.48 0 0 1 23-7.63c9.9-2.07 28.5-2.09 38.24 0 10.52 2.2 22.91 6.79 29.89 11.06l2.07 1.27-4.76-.24c-9.46-.47-23.24 3.32-38 10.49a79 79 0 0 1-8.63 3.83c-.28-.12-3.87-1.88-8.04-3.98z"/></svg>